<?xml version="1.0" encoding="utf-8"?>
<!-- Generator: Adobe Illustrator 22.0.0, SVG Export Plug-In . SVG Version: 6.00 Build 0)  -->
<svg version="1.1" id="Layer_1" xmlns="http://www.w3.org/2000/svg" xmlns:xlink="http://www.w3.org/1999/xlink" x="0px" y="0px"
	 viewBox="0 0 401 362" style="enable-background:new 0 0 401 362;" xml:space="preserve">
<style type="text/css">
	.st0{fill:#BEBEBE;}
	.st1{fill:#E52A30;}
	.st2{fill:#535353;}
	.st3{fill:#FEFEFE;}
	.st4{fill:#FEFCFD;}
	.st5{fill:#D9D9D9;}
	.st6{fill:none;}
</style>
<path class="st0" d="M259.3,316c-0.4,1.4-1.5,2.1-2.7,2.7c-15.7,8.5-31.3,17-47,25.5c-0.4,0.2-0.9,0.2-1.4,0.3
	c-1.9-1.8-1.7-4.3-1.7-6.6c0-59.2,0-118.3,0-177.5c0-2.4,0.2-4.7,1.7-6.7c13.5-8.5,27.9-15.4,41.8-23.1c28.4-15.6,57-31,85.4-46.5
	c17.1-9.3,34.1-18.6,51.1-28.1c3.2-1.8,4.4-1.9,4.4,2.4c-0.1,60.7-0.1,121.3,0,182c0,3.2-0.9,5.4-3.7,6.9
	c-15.7,8.4-31.3,16.8-47,25.3c-2.5,1.1-0.8-1.2-1.2-2.8c-0.4-1.8-2.3-3.3-2.3-5.1c0-13.7,0-27.3,0-41c0-4.7-0.7-5.2-4.9-2.9
	c-22.3,12.2-44.7,24.5-67.1,36.5c-3.2,1.7-4.2,4.3-4.2,7.8c0.1,14.5,0,29,0,43.5C260.5,311.3,260.8,313.8,259.3,316z"/>
<path class="st1" d="M124.9,14.5c10,7.5,19.3,14.2,29.6,19.3c13.5,6.7,27.9,10.8,42.6,13.4c6.7,1.2,13.1-1.8,19.6-3
	c20-3.6,36.7-14.3,52.9-25.7c1.6-1.1,3.2-2.2,6.4-4.3c0,13.2,0.1,25.1-0.1,37c0,3.3,0.8,5.7,3.5,7.7c11.8,8.9,15.8,21.3,16,35.4
	c0,2.2-0.8,3.3-2.5,4.3c-27.7,15.8-55.3,31.8-83.3,47.2c-6.4,3.5-14.1,3.7-21-0.2c-26.5-14.9-52.9-30-79.5-44.8
	c-3.4-1.9-4.7-3.9-4.7-8.1c0-13.7,5.7-24.4,15.4-33.3c2.9-2.6,3.7-5.7,3.8-9.3C124,38.6,124.4,27.1,124.9,14.5z"/>
<path class="st0" d="M61.1,273.5c-0.7-0.4-1.4-0.8-2.1-1.1c-15.4-8.3-30.7-16.6-46.1-24.8c-1.9-1-2.9-2.4-2.8-4.7
	c0.1-62.2,0.1-124.3,0.1-186.5c0-0.4,0.2-0.9,0.5-2C28,63.9,45.1,73.3,62.2,82.7c0.1,0.3,0.1,0.6,0.2,0.9c0.4,14.5,0,29,0.2,43.4
	c0,24.9,0,49.8,0,74.7c0,21.6,0,43.1,0,64.7C62.5,268.8,63.1,271.4,61.1,273.5z"/>
<path class="st2" d="M194.9,346.9c-1.6-1.1-3.2-2.2-4.8-3.3c-1.7-2-1.3-4.4-1.3-6.7c0-10.7-0.1-21.3,0-32c0.1-4.2-1.6-6.6-5.3-8.6
	c-32.2-17.4-64.3-34.9-96.5-52.5c-5.4-3-10.8-6-16.2-8.8c-3.1-1.6-6.4-2.9-8.7-5.7c-1-8.8-0.5-17.5-0.3-26.3
	c2.9-2.1,5.1,0.2,7.3,1.3c15.3,8.4,30.7,16.7,46,25.1c22.9,12.6,45.9,25,68.8,37.6c4.1,2.3,4.9,1.8,4.9-2.8c0.1-10.5,0-21,0-31.5
	c0-3.5-1.3-5.9-4.5-7.6c-37.9-20.5-75.7-41.3-113.5-61.9c-3.3-1.8-7.7-2.5-9.2-6.9c0.2-9.5-0.3-19,0.3-28.4c1.9-1.7,3.4-0.2,5,0.6
	c21.5,11.4,42.7,23.2,64.1,34.8c17.9,9.7,35.6,19.6,53.5,29.1c4,2.1,4.3,1.9,4.3-2.8c0.1-10.3,0-20.7,0-31c0-2.1-0.5-4.4,1.3-6.1
	c2.6,2,5.8,2.1,8.9,2.3c1.8,1.7,1.5,4,1.5,6.1c0,60,0,120,0,179.9c0,1.5,0,3-0.4,4.5C198.9,347.9,196.9,347.3,194.9,346.9z"/>
<path class="st0" d="M63.2,229.7c8.5,4.5,17.1,8.8,25.6,13.4c16.8,9.1,33.5,18.4,50.3,27.5c15.9,8.7,31.8,17.3,47.8,25.9
	c2.8,1.5,3.4,3.7,3.4,6.6c-0.1,13.5,0,27,0,40.5c-3.8-2-7.6-4.1-11.4-6.1c-0.3-0.2-0.6-0.3-0.9-0.5c-20.6-11.1-41.2-22.2-61.8-33.4
	c-18.1-9.8-36-19.8-54-29.8c-1-9.1-0.2-18.1-0.4-27.2c-0.1-4.6-0.1-9.3,0-13.9C61.7,231.6,60.9,229.8,63.2,229.7z"/>
<path class="st0" d="M189.3,152c0.6,0.4,0.9,1.1,0.9,1.7c0,13-6.3,27.5,0,38.9c1.9,3.4-0.7,4.4-4.1,2.5
	c-20.2-11.2-40.5-22.2-60.8-33.3c-20.7-11.3-41.4-22.7-62.1-34.1c-0.9-0.4-1.5-1.1-1.5-2.2c0.2-14.2-0.5-28.4,0.4-42.6l0.2-0.3
	c20.2,10.9,40.3,21.8,60.4,32.7c21.4,11.7,41.9,22.9,63.4,34.7C186.8,150.4,188.5,151.5,189.3,152z"/>
<path class="st2" d="M259.3,316c-0.1-18,0-35.9-0.2-53.9c0-3.3,2.1-4.3,4.2-5.4c11.2-6.2,22.4-12.3,33.6-18.4
	c12-6.5,23.9-13,35.9-19.5c5.2-2.8,5.3-2.7,5.3,3.1c0,15.3,0,30.6,0,45.9c0,0.7,0.8,1.4,0.8,2.1c0,1.1-0.6,2.3,1.2,2.8
	c-13.4,7.1-26.8,14.2-40.2,21.4C286.4,301.4,272.8,308.7,259.3,316z"/>
<path class="st2" d="M194.9,346.9c1.4-0.5,3.2,0.3,4.3-1.2c0.8-1.7,0.4-3.6,0.4-5.4c0-59.4,0-118.8,0-178.2c0-6.5,0-6.5,6.5-7
	c0.7-0.4,1.4-0.8,2.1-1.2c0,63.6,0,127.1,0,190.7C204.1,347.1,199.9,349,194.9,346.9z"/>
<path class="st2" d="M206.1,155c-5.9,0.1-6.1,3.7-6.1,8.5c0.2,58.8,0.1,117.6,0.1,176.4c0,1.9,0.8,4-0.9,5.7
	c0-60.9,0-121.8-0.1-182.7c0-2.7,0-5.3-0.1-8C201.4,155,203.8,155,206.1,155z"/>
<path class="st2" d="M338.2,128c0,14,0,27.2,0,40.3c0,2.2-0.9,3.3-2.7,4.3c-22,12-44.1,24-66.1,36c-0.7,0.4-1.5,0.7-2.2,1.1
	c-8.1,4.6-8.1,4.6-8.1-4.9c0-9.7,0.2-19.3-0.1-29c-0.1-3.5,1.1-5.5,4.1-7.1c14.6-7.9,29.2-15.9,43.8-23.9
	C317,139.3,327.3,133.9,338.2,128z"/>
<path class="st3" d="M218.4,112.8c-9.1-3.4-14.2-15.9-11-25.9c3.7-11.6,17.4-19.9,31.4-19c13.7,0.9,24.5,10.1,26.7,22.7
	c1.5,9.1-3.4,15.3-9.3,21.2c0.8-6,1.1-11.9-2.5-17s-8.4-8.5-14.8-9.1c-7.4-0.7-13.2,2.2-17.8,8C216.7,99.4,216.6,105.8,218.4,112.8z
	"/>
<path class="st3" d="M143.6,111.2c-12.5-9.7-11.7-27.5,1.1-37.1c13.7-10.3,33.7-7.6,44.3,5.9c8.5,10.9,5.2,26.2-7.7,33.8
	c2.2-8.6,2-16.4-4.5-22.7c-4.2-4.1-9.2-5.7-15-5.5C149.6,86,142.6,95.6,143.6,111.2z"/>
<path class="st4" d="M201,131.8c-2.7-2.7-4.8-5.2-6-8.4c-2-5.1,0.1-11,4.6-13.9c1.4-0.9,2-0.3,3,0.4c5.8,4.3,6.9,10,3,16
	C204.2,127.8,202.7,129.6,201,131.8z"/>
<path class="st5" d="M62.1,201.7c-0.3,0-0.7,0-1,0c0-25,0-50,0-75c0.3-0.5,0.7-0.5,1,0c0.3,0.3,0.7,0.7,1,1c-1.8,1.6-1,3.7-1,5.6
	c-0.1,8.1,0,16.2,0,24.4c1.4,1.6,1.6,3.6,1.6,5.6c0.1,10.9,0.1,21.9,0,32.8C63.7,198.1,63.8,200.2,62.1,201.7z"/>
<path class="st6" d="M62.5,129c-0.4,0-0.9,0-1.2,0c0-13.6,0-27.2,0-40.8c0-1.8-0.9-3.9,1.1-5.5C62.5,98.3,62.5,113.7,62.5,129z"/>
<path class="st0" d="M62.1,201.7c0-14.7,0-29.3,0-44c9.6,3.9,18.2,9.5,27.3,14.3c16.5,8.7,32.6,17.9,49,26.8
	c16,8.8,32.1,17.5,48.2,26.1c2.6,1.4,3.5,3.3,3.5,6c0,12-0.1,24,0,36c0.1,4.9-2.2,3.7-4.9,2.3c-15.9-8.7-31.9-17.3-47.7-26
	c-15.6-8.5-31.1-17.2-46.7-25.7c-9.2-5-18.4-10-27.6-14.9C62.8,202.4,62.5,202,62.1,201.7z"/>
<polygon class="st5" points="-385,-173 -385,-173 -385,-173 "/>
<rect x="60" y="124.9" class="st0" width="3" height="111.1"/>
<path class="st0" d="M84.7,169.9l-0.2,0.4c-0.2,0.4-0.8,0.6-1.2,0.4l-43.2-22.6c-0.4-0.2-0.6-0.8-0.4-1.2l0.2-0.4
	c0.2-0.4,0.8-0.6,1.2-0.4L57,154l23,13C80.4,167.2,84.9,169.5,84.7,169.9z"/>
<path class="st0" d="M179,191l12.9,6.9c0.1,0.1,0.2,0.1,0.3,0.1c0.9-0.1,1.8-0.8,1.8-1.4v-41.9c0-0.4-0.3-0.7-0.7-0.8L186,150
	c-0.1,0,4.6,3,4.4,3h-1.1c-0.5,0-1,0.4-1,0.8l-3.3,40C185,194.2,178.6,190.8,179,191z"/>
<g>
	<g>
		<path class="st0" d="M189.4,155.4c1.9,0,1.9-3,0-3C187.4,152.4,187.4,155.4,189.4,155.4L189.4,155.4z"/>
	</g>
</g>
<g>
	<g>
		<path class="st0" d="M189,155.2c1.9,0,1.9-3,0-3S187.1,155.2,189,155.2L189,155.2z"/>
	</g>
</g>
<g>
	<g>
		<path class="st0" d="M188.9,155.1c1.9,0,1.9-3,0-3S187,155.1,188.9,155.1L188.9,155.1z"/>
	</g>
</g>
<path class="st0" d="M184.9,194.5l6.9,3.4c0.1,0,0.1,0,0.1-0.1L190,194c0,0,0,0-0.1,0l-5,0.4V194.5z"/>
<path class="st0" d="M177.4,220l15.2,8.2c0.9,0.5,1.4,1.4,1.4,2.4v40.1c0,1.5-1.6,2.4-2.9,1.7l-16.4-8.9c-0.6-0.3-1-1-1-1.7
	l0.8-40.2C174.5,220.2,176.1,219.3,177.4,220z"/>
<path class="st0" d="M194,346"/>
<path class="st0" d="M165.3,284.9l27.5,14.4c0.8,0.4,1.2,1.2,1.2,2v44.1c0,0.2-0.3,0.4-0.5,0.3l-24.7-13.6c-0.6-0.4-1.1-1-1.2-1.7
	l-5.8-43.1C161.7,285.4,163.6,284,165.3,284.9z"/>
<polygon class="st0" points="194,346.2 194,345 192.3,345.1 "/>
<polygon class="st0" points="338.2,251.5 338.2,273.8 341.3,272.2 "/>
<polygon class="st0" points="64.5,275.1 64,271 58,269 57.4,271.5 "/>
</svg>
