<?xml version="1.0" encoding="UTF-8"?>
<svg id="a" data-name="Layer 1" xmlns="http://www.w3.org/2000/svg" viewBox="0 0 500 288" width="500" height="288">
  <defs>
    <style>
      .b {
        fill: #fff;
        stroke-width: 0px;
      }
    </style>
  </defs>
  <path class="b" d="M189.12,146.82c-2.98-9.82-12.14-16.97-22.96-16.97s-19.87,7.2-22.91,16.93l45.87.03ZM142.17,153.75c0,13.21,10.74,23.91,23.99,23.91,7.11,0,13.49-3.08,17.88-7.98h9.83c-5.53,9.53-15.87,15.94-27.72,15.94-17.66,0-31.98-14.27-31.98-31.88s14.32-31.88,31.98-31.88,31.98,14.27,31.98,31.88h-55.97Z"/>
  <path class="b" d="M120.69,146.82c-2.99-9.82-12.14-16.97-22.97-16.97s-19.87,7.2-22.91,16.93l45.87.03ZM73.74,153.75c0,13.21,10.74,23.91,23.99,23.91,7.11,0,13.49-3.08,17.89-7.98h9.83c-5.53,9.53-15.87,15.94-27.71,15.94-17.67,0-31.98-14.27-31.98-31.88s14.32-31.88,31.98-31.88,31.99,14.27,31.99,31.88h-55.97Z"/>
  <path class="b" d="M360.95,146.82c-2.98-9.82-12.14-16.97-22.97-16.97s-19.87,7.2-22.91,16.93l45.88.03ZM314,153.75c0,13.21,10.75,23.91,23.99,23.91,7.11,0,13.49-3.08,17.88-7.98h9.82c-5.53,9.53-15.87,15.94-27.71,15.94-17.66,0-31.98-14.27-31.98-31.88s14.32-31.88,31.98-31.88,31.99,14.27,31.99,31.88h-55.97Z"/>
  <path class="b" d="M277.56,169.66h0c0,4.54,3.62,8.21,8.09,8.21,9.15,0,16.85-2.56,19.15-6.04l4.61,5.34c-4.56,4.96-13.48,8.33-23.76,8.33-8.83,0-16.04-7.09-16.04-15.84h-.02l-.04-39.69v-.04h-22.62v-8.12h22.62v-31.81h7.99v31.81h12.3v8.12h-12.26l-.04.04v39.69s.02,0,.02,0Z"/>
  <path class="b" d="M374.42,153.7c0-17.61,14.32-31.88,31.98-31.88,11.84,0,22.18,6.41,27.84,16.08h-9.83c-4.53-5.04-10.91-8.11-18.02-8.11-13.25,0-23.99,10.71-23.99,23.91v.06c.01,13.21,10.75,23.91,24,23.91,7.1,0,13.48-3.08,17.88-7.98h9.83c-5.53,9.53-15.87,15.94-27.71,15.94-17.67,0-31.98-14.27-31.98-31.88v-.06Z"/>
  <path class="b" d="M216.5,223.53c3.6-2.96,7.51-5.9,11.38-8.81,14.73-11.07,29.97-22.51,29.97-36.79s-15.2-25.63-29.89-36.67c-13.37-10.04-27.18-20.42-27.18-31.19s13.78-21.06,27.11-31.07c6.28-4.71,12.64-9.49,17.88-14.54l-10.39-.02c-3.65,3.02-7.63,6.01-11.57,8.96-14.7,11.04-29.89,22.45-29.89,36.67s15.23,25.72,29.96,36.78c13.33,10.01,27.11,20.36,27.11,31.07s-13.82,21.15-27.18,31.19c-6.23,4.68-12.55,9.43-17.77,14.44l10.47-.03Z"/>
</svg>